<svg width="250" height="200" viewBox="0 0 250 200" xmlns="http://www.w3.org/2000/svg">
  <rect width="250" height="200" fill="#f8fafc"/>
  
  <text x="125" y="20" text-anchor="middle" fill="#1f2937" font-family="Arial, sans-serif" font-size="16" font-weight="bold">
    Position 4: Left Side Down (90° Roll Left)
  </text>
  
  <line x1="20" y1="150" x2="230" y2="150" stroke="#10b981" stroke-width="3"/>
  <text x="125" y="170" text-anchor="middle" fill="#10b981" font-family="Arial, sans-serif" font-size="12" font-weight="bold">
    Flat Surface
  </text>
  
  <rect x="115" y="120" width="20" height="40" rx="4" fill="#374151" stroke="#1f2937" stroke-width="2"/>
  <rect x="120" y="125" width="10" height="30" rx="2" fill="#1e40af"/>
  
  <line x1="105" y1="110" x2="145" y2="170" stroke="#374151" stroke-width="6" stroke-linecap="round"/>
  <line x1="145" y1="110" x2="105" y2="170" stroke="#374151" stroke-width="6" stroke-linecap="round"/>
  
  <circle cx="105" cy="110" r="8" fill="#8b5cf6" stroke="#7c3aed" stroke-width="1"/>
  <circle cx="145" cy="110" r="8" fill="#ef4444" stroke="#dc2626" stroke-width="1"/>
  <circle cx="145" cy="170" r="8" fill="#10b981" stroke="#059669" stroke-width="1"/>
  <circle cx="105" cy="170" r="8" fill="#f59e0b" stroke="#d97706" stroke-width="1"/>
  
  <ellipse cx="105" cy="110" rx="2" ry="6" fill="#d1d5db"/>
  <ellipse cx="145" cy="110" rx="2" ry="6" fill="#d1d5db"/>
  <ellipse cx="145" cy="170" rx="2" ry="6" fill="#d1d5db"/>
  <ellipse cx="105" cy="170" rx="2" ry="6" fill="#d1d5db"/>
  
  <rect x="103" y="148" width="4" height="5" fill="#6b7280"/>
  <rect x="103" y="127" width="4" height="5" fill="#6b7280"/>
  
  <circle cx="138" cy="140" r="3" fill="#ef4444"/>
  <text x="165" y="145" text-anchor="middle" fill="#dc2626" font-family="Arial, sans-serif" font-size="10" font-weight="bold">
    FRONT
  </text>
  
  <text x="45" y="115" fill="#8b5cf6" font-family="Arial, sans-serif" font-size="10" font-weight="bold">
    90° LEFT
  </text>
  
  <text x="125" y="190" text-anchor="middle" fill="#1f2937" font-family="Arial, sans-serif" font-size="11">
    Roll drone 90° to the left - left arm touching surface
  </text>
  
  <circle cx="200" cy="40" r="8" fill="#fbbf24"/>
  <text x="215" y="45" fill="#92400e" font-family="Arial, sans-serif" font-size="12" font-weight="bold">
    Pending
  </text>
</svg> 